<?xml version="1.0" encoding="UTF-8"?>
<svg id="Livello_1" data-name="Livello 1" xmlns="http://www.w3.org/2000/svg" viewBox="0 0 30 30">
  <defs>
    <style>
      .cls-1 {
        fill: #83cff4;
        stroke-width: 0px;
      }
    </style>
  </defs>
  <path class="cls-1" d="M18.15,15c0-1.74-1.41-3.15-3.15-3.15s-3.15,1.41-3.15,3.15,1.41,3.15,3.15,3.15,3.15-1.41,3.15-3.15M21.18,9.96c0,.63-.51,1.13-1.13,1.13s-1.13-.51-1.13-1.13.51-1.13,1.13-1.13,1.13.51,1.13,1.13M19.85,15c0,2.68-2.17,4.85-4.85,4.85s-4.85-2.17-4.85-4.85,2.17-4.85,4.85-4.85,4.85,2.17,4.85,4.85M22.69,18.82c.05-1,.06-1.29.06-3.82s0-2.82-.06-3.82c-.04-.92-.2-1.42-.33-1.75-.17-.44-.38-.76-.71-1.09-.33-.33-.65-.53-1.09-.71-.33-.13-.83-.28-1.75-.33-.99-.05-1.29-.06-3.82-.06s-2.82,0-3.82.06c-.92.04-1.42.2-1.75.33-.44.17-.76.38-1.08.71-.33.33-.54.65-.71,1.09-.13.33-.28.83-.33,1.75-.04.99-.05,1.29-.05,3.82s0,2.82.05,3.82c.04.92.2,1.42.33,1.75.17.44.38.76.71,1.09.33.33.64.53,1.08.71.33.13.83.28,1.75.33,1,.05,1.29.06,3.82.06s2.82,0,3.82-.06c.92-.04,1.42-.2,1.75-.33.44-.17.76-.38,1.09-.71.33-.33.53-.65.71-1.09.13-.33.28-.83.33-1.75M24.45,15c0,2.57-.01,2.89-.06,3.89-.05,1-.21,1.69-.44,2.29-.24.62-.57,1.15-1.09,1.67-.53.53-1.05.85-1.67,1.09-.6.23-1.29.39-2.29.44-1.01.05-1.33.06-3.89.06s-2.88,0-3.89-.06c-1.01-.05-1.69-.21-2.29-.44-.62-.24-1.15-.57-1.67-1.09-.53-.53-.85-1.05-1.09-1.67-.23-.6-.39-1.29-.44-2.29-.04-1.01-.06-1.33-.06-3.89s.01-2.89.06-3.89c.05-1,.21-1.69.44-2.29.24-.62.56-1.15,1.09-1.67.53-.53,1.05-.85,1.67-1.09.6-.23,1.29-.39,2.29-.44,1.01-.05,1.33-.06,3.89-.06s2.89,0,3.89.06c1,.05,1.69.21,2.29.44.62.24,1.15.56,1.67,1.09.53.53.85,1.05,1.09,1.67.23.6.39,1.29.44,2.29.05,1.01.06,1.33.06,3.89M30,15C30,6.72,23.28,0,15,0S0,6.72,0,15s6.72,15,15,15,15-6.72,15-15"/>
</svg>