<?xml version="1.0" encoding="UTF-8"?>
<svg id="Livello_1" data-name="Livello 1" xmlns="http://www.w3.org/2000/svg" viewBox="0 0 30 30">
  <defs>
    <style>
      .cls-1 {
        fill: #83cff4;
        stroke-width: 0px;
      }
    </style>
  </defs>
  <path class="cls-1" d="M24.12,16.73c0,2.07,0,4.15,0,6.22,0,.2-.05.25-.24.24-1.07,0-2.13,0-3.2,0-.19,0-.23-.06-.23-.23,0-1.97,0-3.94,0-5.92,0-.49-.03-.99-.17-1.47-.26-.88-.89-1.34-1.82-1.29-1.26.07-1.92.69-2.08,1.98-.04.31-.06.62-.06.92,0,1.92,0,3.84,0,5.75,0,.19-.05.25-.24.25-1.07,0-2.15,0-3.23,0-.17,0-.22-.05-.22-.22,0-3.8,0-7.59,0-11.39,0-.19.06-.23.24-.23,1.02,0,2.04,0,3.06,0,.19,0,.24.06.23.24,0,.45,0,.91,0,1.36.25-.28.45-.56.7-.8.78-.73,1.7-1.1,2.77-1.09.59,0,1.17.05,1.74.21,1.3.38,2.06,1.27,2.42,2.55.27.95.32,1.93.32,2.91M10.61,7.59c0,1.18-.96,2.14-2.13,2.14s-2.12-.96-2.13-2.12c0-1.17.96-2.14,2.13-2.14,1.17,0,2.13.96,2.13,2.12M6.63,22.98c0-3.8,0-7.61,0-11.41,0-.16.04-.21.2-.21,1.08,0,2.17,0,3.25,0,.21,0,.24.08.24.26,0,1.89,0,3.79,0,5.68s0,3.76,0,5.63c0,.21-.05.27-.27.27-1.07-.01-2.13,0-3.2,0-.17,0-.22-.04-.22-.22M30,15C30,6.71,23.28,0,15,0S0,6.71,0,15s6.72,15,15,15,15-6.72,15-15"/>
</svg>